/* XPM */
static char *dict[] = {
/* width height num_colors chars_per_pixel */
"    35    32        8            1",
/* colors */
". c #b2c0dc",
"# c #000000",
"a c #00ff00",
"b c #ffffe0",
"c c #b3b3b3",
"d c #d2b48c",
"e c #ff0000",
"f c #b03060",
/* pixels */
".................###...............",
".................###...............",
"...............##aaa#.....#........",
"...............##aaa#.....#........",
"..............#aaaaaa####bb........",
".....#....#bbbaaa###aa#bbbc##......",
".....#....#bbbaaa###aa#bbbc##......",
".....b...#bbbbaaa###aa#cccb##......",
"...##bbbbbbbbbaaa###aa#bbbcbb#.....",
"...##bbbbbbbbbaaa###aa#bbbcbb#.....",
"..####bbbbcbbbbbbbaaaabbbbbbb#.....",
"##d###bbbbccbbbbbbaaabbccccbbb##...",
"##d###bbbbccbbbbbbaaabbccccbbb##...",
"######bbbbcbbbcccbaa#bcbbbbbbbbb...",
"eed##dbbbbbcbbbbbb##bcbbbbbbbbbbb#.",
"eed##dbbbbbcbbbbbb##bcbbbbbbbbbbb#.",
"..#ddd#bbcbbccbbb###bbbbbbbcccbbb#.",
"..edd#d##bcbbbcbb####bbccbbbbbbb###",
"..edd#d##bcbbbcbb####bbccbbbbbbb###",
"..e######bbbccbbb####bbbbbbbbbbb#d#",
"...dddd###bbbbcbbbbbbbcbbb####dddd#",
"...dddd###bbbbcbbbbbbbcbbb####dddd#",
"...ee#d##d#bccbbbb##b#b##dddd###dde",
".....##ddd#bbbbbb#aab#b######ddd#ee",
".....##ddd#bbbbbb#aab#b######ddd#ee",
".....edddddb###ddaaa#####eeeeeee...",
"......d##dd#dd####aafff##..........",
"......d##dd#dd####aafff##..........",
"......edd#d#dd#eeeee###............",
"......e####d##dee...eee............",
"......e####d##dee...eee............",
".......ee##eee....................."
};
